<?xml version="1.0" standalone="no"?>
<!DOCTYPE svg PUBLIC "-//W3C//DTD SVG 20010904//EN" "http://www.w3.org/TR/2001/REC-SVG-20010904/DTD/svg10.dtd">
<svg version="1.0" xmlns="http://www.w3.org/2000/svg" width="369.000000pt" height="391.000000pt" viewBox="0 0 369.000000 391.000000" preserveAspectRatio="xMidYMid meet">
<metadata>
Created by Alper Mutlu TOKSÖZ
</metadata>
<g transform="translate(0.000000,391.000000) scale(0.100000,-0.100000)" fill="#000000" stroke="none">
	<path d="M1763 3890 c-91 -41 -191 -162 -293 -353 -29 -54 -51 -100 -49 -102 2 -2 33 44 69 102 81 130 210 271 282 307 55 28 117 33 164 16 25 -10 26 -9 13 6 -37 45 -119 55 -186 24z"/>
	<path d="M1535 3367 c-97 -32 -182 -123 -206 -220 -33 -137 38 -284 169 -349 37 -18 64 -23 127 -23 94 0 150 23 214 86 63 64 86 120 86 214 0 63 -5 90 -23 127 -31 62 -87 119 -146 148 -58 28 -163 36 -221 17z m211 -35 c62 -32 97 -65 129 -124 26 -46 30 -63 30 -133 0 -70 -4 -87 -30 -133 -32 -59 -66 -91 -129 -125 -58 -31 -184 -31 -242 0 -63 34 -97 66 -128 123 -85 155 -11 342 161 406 53 20 157 13 209 -14z"/>
	<path d="M3305 3154 c-553 -219 -1049 -489 -1527 -831 l-117 -84 -133 73 c-149 81 -422 214 -633 308 -194 87 -447 191 -452 187 -2 -2 52 -28 119 -57 173 -75 504 -235 650 -315 165 -90 398 -228 397 -235 0 -3 -57 -51 -127 -107 -596 -482 -1079 -1105 -1351 -1746 -46 -107 -132 -339 -128 -343 1 -1 49 17 107 41 l105 43 46 124 c180 485 474 965 864 1407 107 121 398 411 497 495 l57 48 138 -95 c638 -443 1043 -936 1138 -1387 8 -39 15 -87 15 -106 0 -30 3 -34 19 -29 10 3 87 25 170 49 84 24 154 46 157 48 6 6 -37 130 -73 208 -79 174 -240 386 -434 575 -262 254 -568 478 -1007 735 -40 24 -69 46 -65 50 403 343 1052 725 1618 952 55 22 102 42 104 44 12 11 -27 -2 -154 -52z"/>
</g>
</svg>